<svg width="24" height="24" viewBox="0 0 24 24" fill="none" xmlns="http://www.w3.org/2000/svg">
<path d="M8 15H10V12H13.5V14.5L17 11L13.5 7.5V10H9C8.71667 10 8.47917 10.0958 8.2875 10.2875C8.09583 10.4792 8 10.7167 8 11V15ZM12 22C11.75 22 11.5042 21.95 11.2625 21.85C11.0208 21.75 10.8 21.6 10.6 21.4L2.6 13.4C2.4 13.2 2.25 12.9792 2.15 12.7375C2.05 12.4958 2 12.25 2 12C2 11.75 2.05 11.5042 2.15 11.2625C2.25 11.0208 2.4 10.8 2.6 10.6L10.6 2.6C10.8 2.4 11.0208 2.25 11.2625 2.15C11.5042 2.05 11.75 2 12 2C12.25 2 12.4958 2.05 12.7375 2.15C12.9792 2.25 13.2 2.4 13.4 2.6L21.4 10.6C21.6 10.8 21.75 11.0208 21.85 11.2625C21.95 11.5042 22 11.75 22 12C22 12.25 21.95 12.4958 21.85 12.7375C21.75 12.9792 21.6 13.2 21.4 13.4L13.4 21.4C13.2 21.6 12.9792 21.75 12.7375 21.85C12.4958 21.95 12.25 22 12 22Z" fill="white" style="fill:white;fill-opacity:1;"/>
</svg>
